<svg width="181" height="50" viewBox="0 0 181 50" fill="none" xmlns="http://www.w3.org/2000/svg">
<g clip-path="url(#clip0_1_29)">
<path d="M23.4933 7.5907C22.4044 6.3728 21.0384 5.43354 19.5103 4.85206C17.9822 4.27059 16.3369 4.06395 14.713 4.24955C13.0891 4.43516 11.5343 5.00758 10.1795 5.91857C8.82473 6.82955 7.70974 8.0524 6.92851 9.48405C6.14729 10.9157 5.72272 12.5142 5.6906 14.1448C5.65848 15.7753 6.01975 17.3903 6.74395 18.8534C7.46815 20.3165 8.53407 21.5849 9.85185 22.5517C11.1696 23.5186 12.7007 24.1555 14.3159 24.4088" stroke="black" stroke-width="2" stroke-linecap="round" stroke-linejoin="round"/>
<path d="M21.1911 10.2739C20.503 9.50109 19.6396 8.90531 18.6736 8.53675C17.7075 8.1682 16.6672 8.03768 15.6403 8.15619C14.6133 8.2747 13.6299 8.63878 12.7728 9.21772C11.9158 9.79667 11.2102 10.5735 10.7156 11.4828C10.221 12.3921 9.9519 13.4072 9.93092 14.4424C9.90994 15.4777 10.1377 16.5029 10.5951 17.4315C11.0524 18.3602 11.7259 19.1651 12.5588 19.7784C13.3917 20.3917 14.3596 20.7954 15.3809 20.9556" stroke="black" stroke-width="2" stroke-linecap="round" stroke-linejoin="round"/>
</g>
<path d="M35.0574 45.0637V39.0703V38.3211H26.3647C22.8136 38.3211 20.2612 34.9498 20.2612 31.9531V21.6519C20.2612 16.1079 24.7001 14.5971 26.9195 14.5347H40.2361H46.7094C51.8881 14.5347 53.0595 20.0286 52.9978 22.7756V30.8293C52.9978 36.8228 46.9561 38.8206 43.9352 39.0703L35.0574 46.0002V45.0637Z" stroke="black" stroke-width="3"/>
<path d="M64.91 18.37V23.18H70.67V24.91H64.91V31H62.77V16.64H71.67V18.37H64.91ZM79.2897 24.79C79.2897 24.4033 79.233 24.0467 79.1197 23.72C79.013 23.3933 78.853 23.11 78.6397 22.87C78.4264 22.63 78.1664 22.4433 77.8597 22.31C77.553 22.1767 77.1997 22.11 76.7997 22.11C75.9797 22.11 75.333 22.3467 74.8597 22.82C74.393 23.2933 74.0964 23.95 73.9697 24.79H79.2897ZM80.8997 29.55C80.6597 29.83 80.383 30.0733 80.0697 30.28C79.7564 30.48 79.423 30.6433 79.0697 30.77C78.7164 30.8967 78.3497 30.99 77.9697 31.05C77.5964 31.11 77.2264 31.14 76.8597 31.14C76.1597 31.14 75.5097 31.0233 74.9097 30.79C74.3164 30.55 73.7997 30.2033 73.3597 29.75C72.9264 29.29 72.5864 28.7233 72.3397 28.05C72.0997 27.37 71.9797 26.59 71.9797 25.71C71.9797 25.0033 72.0897 24.3467 72.3097 23.74C72.5297 23.1267 72.843 22.5933 73.2497 22.14C73.663 21.6867 74.1664 21.33 74.7597 21.07C75.353 20.81 76.0197 20.68 76.7597 20.68C77.3797 20.68 77.9497 20.7833 78.4697 20.99C78.9964 21.19 79.4497 21.4833 79.8297 21.87C80.2097 22.2567 80.5064 22.7333 80.7197 23.3C80.9397 23.8667 81.0497 24.5133 81.0497 25.24C81.0497 25.54 81.0164 25.7433 80.9497 25.85C80.883 25.95 80.7597 26 80.5797 26H73.9197C73.9397 26.6067 74.0264 27.1367 74.1797 27.59C74.333 28.0367 74.543 28.41 74.8097 28.71C75.083 29.01 75.4064 29.2333 75.7797 29.38C76.153 29.5267 76.5697 29.6 77.0297 29.6C77.463 29.6 77.8364 29.55 78.1497 29.45C78.4697 29.35 78.743 29.2433 78.9697 29.13C79.203 29.01 79.3964 28.9 79.5497 28.8C79.7097 28.7 79.8497 28.65 79.9697 28.65C80.1297 28.65 80.253 28.71 80.3397 28.83L80.8997 29.55ZM89.6356 24.79C89.6356 24.4033 89.579 24.0467 89.4656 23.72C89.359 23.3933 89.199 23.11 88.9856 22.87C88.7723 22.63 88.5123 22.4433 88.2056 22.31C87.899 22.1767 87.5456 22.11 87.1456 22.11C86.3256 22.11 85.679 22.3467 85.2056 22.82C84.739 23.2933 84.4423 23.95 84.3156 24.79H89.6356ZM91.2456 29.55C91.0056 29.83 90.729 30.0733 90.4156 30.28C90.1023 30.48 89.769 30.6433 89.4156 30.77C89.0623 30.8967 88.6956 30.99 88.3156 31.05C87.9423 31.11 87.5723 31.14 87.2056 31.14C86.5056 31.14 85.8556 31.0233 85.2556 30.79C84.6623 30.55 84.1456 30.2033 83.7056 29.75C83.2723 29.29 82.9323 28.7233 82.6856 28.05C82.4456 27.37 82.3256 26.59 82.3256 25.71C82.3256 25.0033 82.4356 24.3467 82.6556 23.74C82.8756 23.1267 83.189 22.5933 83.5956 22.14C84.009 21.6867 84.5123 21.33 85.1056 21.07C85.699 20.81 86.3656 20.68 87.1056 20.68C87.7256 20.68 88.2956 20.7833 88.8156 20.99C89.3423 21.19 89.7956 21.4833 90.1756 21.87C90.5556 22.2567 90.8523 22.7333 91.0656 23.3C91.2856 23.8667 91.3956 24.5133 91.3956 25.24C91.3956 25.54 91.3623 25.7433 91.2956 25.85C91.229 25.95 91.1056 26 90.9256 26H84.2656C84.2856 26.6067 84.3723 27.1367 84.5256 27.59C84.679 28.0367 84.889 28.41 85.1556 28.71C85.429 29.01 85.7523 29.2333 86.1256 29.38C86.499 29.5267 86.9156 29.6 87.3756 29.6C87.809 29.6 88.1823 29.55 88.4956 29.45C88.8156 29.35 89.089 29.2433 89.3156 29.13C89.549 29.01 89.7423 28.9 89.8956 28.8C90.0556 28.7 90.1956 28.65 90.3156 28.65C90.4756 28.65 90.599 28.71 90.6856 28.83L91.2456 29.55ZM99.8016 23.3C99.4816 22.88 99.1349 22.5867 98.7616 22.42C98.3949 22.2533 97.9816 22.17 97.5216 22.17C96.6282 22.17 95.9349 22.4933 95.4416 23.14C94.9549 23.78 94.7116 24.7167 94.7116 25.95C94.7116 26.5967 94.7649 27.15 94.8716 27.61C94.9849 28.0633 95.1449 28.4367 95.3516 28.73C95.5649 29.0167 95.8249 29.23 96.1316 29.37C96.4382 29.5033 96.7849 29.57 97.1716 29.57C97.7382 29.57 98.2282 29.4433 98.6416 29.19C99.0549 28.9367 99.4416 28.58 99.8016 28.12V23.3ZM101.762 16.24V31H100.582C100.308 31 100.138 30.87 100.072 30.61L99.9016 29.44C99.4682 29.9533 98.9749 30.3667 98.4216 30.68C97.8749 30.9867 97.2416 31.14 96.5216 31.14C95.9416 31.14 95.4149 31.0267 94.9416 30.8C94.4749 30.5733 94.0749 30.2433 93.7416 29.81C93.4082 29.37 93.1516 28.8267 92.9716 28.18C92.7916 27.5333 92.7016 26.79 92.7016 25.95C92.7016 25.1967 92.8016 24.4967 93.0016 23.85C93.2016 23.2033 93.4916 22.6433 93.8716 22.17C94.2516 21.6967 94.7116 21.3267 95.2516 21.06C95.7916 20.7867 96.4016 20.65 97.0816 20.65C97.6949 20.65 98.2149 20.75 98.6416 20.95C99.0749 21.15 99.4616 21.4333 99.8016 21.8V16.24H101.762ZM106.192 28.5C106.512 28.92 106.859 29.2133 107.232 29.38C107.605 29.5467 108.012 29.63 108.452 29.63C109.359 29.63 110.055 29.3067 110.542 28.66C111.035 28.0133 111.282 27.0367 111.282 25.73C111.282 24.5233 111.065 23.64 110.632 23.08C110.199 22.5133 109.585 22.23 108.792 22.23C108.232 22.23 107.745 22.3567 107.332 22.61C106.925 22.8633 106.545 23.2233 106.192 23.69V28.5ZM106.192 22.24C106.612 21.7733 107.089 21.3967 107.622 21.11C108.155 20.8233 108.762 20.68 109.442 20.68C110.035 20.68 110.569 20.7967 111.042 21.03C111.522 21.2567 111.929 21.5867 112.262 22.02C112.595 22.4467 112.852 22.9667 113.032 23.58C113.212 24.1933 113.302 24.8867 113.302 25.66C113.302 26.48 113.199 27.2267 112.992 27.9C112.792 28.5733 112.502 29.15 112.122 29.63C111.749 30.11 111.292 30.4833 110.752 30.75C110.212 31.01 109.605 31.14 108.932 31.14C108.605 31.14 108.305 31.1067 108.032 31.04C107.759 30.98 107.505 30.89 107.272 30.77C107.045 30.65 106.835 30.5033 106.642 30.33C106.449 30.1567 106.265 29.96 106.092 29.74L106.002 30.59C105.949 30.8633 105.782 31 105.502 31H104.242V16.24H106.192V22.24ZM120.692 26.49C119.899 26.5167 119.226 26.58 118.672 26.68C118.119 26.7733 117.669 26.9 117.322 27.06C116.976 27.22 116.726 27.41 116.572 27.63C116.419 27.8433 116.342 28.0833 116.342 28.35C116.342 28.6033 116.382 28.8233 116.462 29.01C116.549 29.19 116.662 29.34 116.802 29.46C116.949 29.5733 117.119 29.6567 117.312 29.71C117.506 29.7633 117.716 29.79 117.942 29.79C118.242 29.79 118.516 29.76 118.762 29.7C119.016 29.64 119.252 29.5567 119.472 29.45C119.692 29.3367 119.902 29.2 120.102 29.04C120.302 28.88 120.499 28.6967 120.692 28.49V26.49ZM114.972 22.26C115.539 21.72 116.152 21.3167 116.812 21.05C117.479 20.7833 118.209 20.65 119.002 20.65C119.582 20.65 120.096 20.7467 120.542 20.94C120.989 21.1267 121.366 21.39 121.672 21.73C121.979 22.07 122.209 22.4767 122.362 22.95C122.522 23.4233 122.602 23.9467 122.602 24.52V31H121.732C121.539 31 121.392 30.97 121.292 30.91C121.192 30.8433 121.112 30.7233 121.052 30.55L120.842 29.66C120.582 29.9 120.326 30.1133 120.072 30.3C119.819 30.48 119.552 30.6367 119.272 30.77C118.999 30.8967 118.706 30.9933 118.392 31.06C118.079 31.1267 117.732 31.16 117.352 31.16C116.952 31.16 116.576 31.1067 116.222 31C115.876 30.8867 115.572 30.7167 115.312 30.49C115.052 30.2633 114.846 29.98 114.692 29.64C114.546 29.3 114.472 28.9033 114.472 28.45C114.472 28.05 114.579 27.6667 114.792 27.3C115.012 26.9267 115.366 26.5933 115.852 26.3C116.346 26.0067 116.986 25.7667 117.772 25.58C118.566 25.3933 119.539 25.2867 120.692 25.26V24.52C120.692 23.7533 120.529 23.18 120.202 22.8C119.876 22.42 119.396 22.23 118.762 22.23C118.336 22.23 117.976 22.2833 117.682 22.39C117.396 22.4967 117.146 22.6167 116.932 22.75C116.726 22.8767 116.542 22.9933 116.382 23.1C116.229 23.2067 116.069 23.26 115.902 23.26C115.769 23.26 115.652 23.2233 115.552 23.15C115.459 23.0767 115.382 22.99 115.322 22.89L114.972 22.26ZM132.093 22.74C132.033 22.8133 131.973 22.8733 131.913 22.92C131.86 22.96 131.78 22.98 131.673 22.98C131.566 22.98 131.453 22.94 131.333 22.86C131.22 22.7733 131.073 22.6833 130.893 22.59C130.72 22.49 130.506 22.4 130.253 22.32C130.006 22.2333 129.7 22.19 129.333 22.19C128.853 22.19 128.43 22.2767 128.063 22.45C127.696 22.6233 127.39 22.87 127.143 23.19C126.903 23.51 126.72 23.9 126.593 24.36C126.466 24.82 126.403 25.3367 126.403 25.91C126.403 26.5033 126.47 27.0333 126.603 27.5C126.736 27.96 126.926 28.35 127.173 28.67C127.42 28.9833 127.72 29.2233 128.073 29.39C128.426 29.55 128.82 29.63 129.253 29.63C129.673 29.63 130.02 29.58 130.293 29.48C130.566 29.3733 130.793 29.26 130.973 29.14C131.153 29.02 131.303 28.91 131.423 28.81C131.543 28.7033 131.666 28.65 131.793 28.65C131.953 28.65 132.076 28.71 132.163 28.83L132.723 29.55C132.49 29.8367 132.226 30.08 131.933 30.28C131.646 30.48 131.34 30.6433 131.013 30.77C130.686 30.8967 130.343 30.99 129.983 31.05C129.63 31.11 129.27 31.14 128.903 31.14C128.27 31.14 127.676 31.0233 127.123 30.79C126.576 30.5567 126.1 30.2167 125.693 29.77C125.293 29.3233 124.976 28.7767 124.743 28.13C124.51 27.4767 124.393 26.7367 124.393 25.91C124.393 25.1567 124.496 24.46 124.703 23.82C124.916 23.18 125.226 22.63 125.633 22.17C126.046 21.7033 126.553 21.34 127.153 21.08C127.753 20.8133 128.44 20.68 129.213 20.68C129.94 20.68 130.58 20.7967 131.133 21.03C131.686 21.2633 132.18 21.5933 132.613 22.02L132.093 22.74ZM136.253 16.24V24.87H136.713C136.853 24.87 136.97 24.85 137.063 24.81C137.157 24.77 137.253 24.69 137.353 24.57L140.393 21.22C140.487 21.0933 140.59 21 140.703 20.94C140.817 20.8733 140.96 20.84 141.133 20.84H142.913L139.323 24.77C139.13 25.0167 138.923 25.2067 138.703 25.34C138.83 25.4267 138.94 25.5267 139.033 25.64C139.133 25.7533 139.23 25.8767 139.323 26.01L143.143 31H141.393C141.233 31 141.093 30.9733 140.973 30.92C140.86 30.8667 140.757 30.77 140.663 30.63L137.523 26.55C137.423 26.3967 137.323 26.3 137.223 26.26C137.123 26.2133 136.973 26.19 136.773 26.19H136.253V31H134.303V16.24H136.253ZM156.516 16.64V31H154.386V24.53H146.896V31H144.756V16.64H146.896V22.98H154.386V16.64H156.516ZM167.703 20.84V31H166.533C166.266 31 166.093 30.87 166.013 30.61L165.873 29.59C165.653 29.8233 165.423 30.0367 165.183 30.23C164.943 30.4233 164.686 30.59 164.413 30.73C164.14 30.8633 163.85 30.9667 163.543 31.04C163.236 31.12 162.906 31.16 162.553 31.16C161.993 31.16 161.5 31.0667 161.073 30.88C160.653 30.6933 160.3 30.4333 160.013 30.1C159.726 29.76 159.51 29.3533 159.363 28.88C159.216 28.4067 159.143 27.8833 159.143 27.31V20.84H161.103V27.31C161.103 28.0367 161.27 28.6033 161.603 29.01C161.936 29.41 162.446 29.61 163.133 29.61C163.633 29.61 164.1 29.4933 164.533 29.26C164.966 29.02 165.373 28.6933 165.753 28.28V20.84H167.703ZM172.135 28.5C172.455 28.92 172.802 29.2133 173.175 29.38C173.548 29.5467 173.955 29.63 174.395 29.63C175.302 29.63 175.998 29.3067 176.485 28.66C176.978 28.0133 177.225 27.0367 177.225 25.73C177.225 24.5233 177.008 23.64 176.575 23.08C176.142 22.5133 175.528 22.23 174.735 22.23C174.175 22.23 173.688 22.3567 173.275 22.61C172.868 22.8633 172.488 23.2233 172.135 23.69V28.5ZM172.135 22.24C172.555 21.7733 173.032 21.3967 173.565 21.11C174.098 20.8233 174.705 20.68 175.385 20.68C175.978 20.68 176.512 20.7967 176.985 21.03C177.465 21.2567 177.872 21.5867 178.205 22.02C178.538 22.4467 178.795 22.9667 178.975 23.58C179.155 24.1933 179.245 24.8867 179.245 25.66C179.245 26.48 179.142 27.2267 178.935 27.9C178.735 28.5733 178.445 29.15 178.065 29.63C177.692 30.11 177.235 30.4833 176.695 30.75C176.155 31.01 175.548 31.14 174.875 31.14C174.548 31.14 174.248 31.1067 173.975 31.04C173.702 30.98 173.448 30.89 173.215 30.77C172.988 30.65 172.778 30.5033 172.585 30.33C172.392 30.1567 172.208 29.96 172.035 29.74L171.945 30.59C171.892 30.8633 171.725 31 171.445 31H170.185V16.24H172.135V22.24Z" fill="black"/>
<defs>
<clipPath id="clip0_1_29">
<rect width="24.7127" height="24.7531" fill="white" transform="matrix(-0.987931 -0.154893 0.154375 -0.988012 24.4143 28.2842)"/>
</clipPath>
</defs>
</svg>
